<svg width="145" height="127" viewBox="0 0 145 127" fill="none" xmlns="http://www.w3.org/2000/svg">
<g clip-path="url(#clip0_8_175)">
<path d="M20.3906 41.6719L21.643 39.4779C22.2809 38.3607 22.2809 37.0455 21.643 35.9283L20.3906 33.7344L19.1382 31.5404C18.5004 30.4232 18.5004 29.108 19.1382 27.9908L20.3906 25.7969" stroke="#797270"/>
<path d="M14.7266 43.6562L15.979 41.4623C16.6168 40.3451 16.6168 39.0299 15.979 37.9127L14.7266 35.7188L13.4742 33.5248C12.8363 32.4076 12.8363 31.0924 13.4742 29.9752L14.7266 27.7812" stroke="#797270"/>
<path d="M83.8281 55.5625H38.5156V61.5156H83.8281V55.5625Z" fill="#F3F3F3" stroke="#453F3C" stroke-width="2"/>
<path d="M81.5625 33.7344H40.7812V55.5625H81.5625V33.7344Z" fill="#5A524E" stroke="#453F3C" stroke-width="2"/>
<path d="M77.0312 37.7031H45.3125V39.6875H77.0312V37.7031Z" fill="#F78764"/>
<path d="M77.0312 41.6719H45.3125V43.6562H77.0312V41.6719Z" fill="#F9AB82"/>
<path d="M77.0312 45.6406H45.3125V47.625H77.0312V45.6406Z" fill="#F78764"/>
<path d="M77.0312 49.6094H45.3125V51.5938H77.0312V49.6094Z" fill="#F9AB82"/>
<path d="M22.6562 47.625H11.3281V61.5156H22.6562V47.625Z" fill="#CCC4C4" stroke="#453F3C" stroke-width="2"/>
<path d="M24.9219 55.5625C27.4245 55.5625 29.4531 53.7857 29.4531 51.5938C29.4531 49.4018 27.4245 47.625 24.9219 47.625" stroke="#453F3C" stroke-width="2"/>
<path d="M20.3906 49.6094H13.5938V51.5938H20.3906V49.6094Z" fill="#D6D2D1"/>
<path d="M131.406 61.5156V53.5781H99.6875V61.5156H131.406Z" fill="#B16B4F" stroke="#453F3C" stroke-width="2"/>
<path d="M126.875 53.5781V45.6406H95.1562V53.5781H126.875Z" fill="#797270" stroke="#453F3C" stroke-width="2"/>
<path d="M135.938 45.6406V37.7031H104.219V45.6406H135.938Z" fill="#F78764" stroke="#453F3C" stroke-width="2"/>
<path d="M133.672 39.6875H106.484V41.6719H133.672V39.6875Z" fill="#F9AB82"/>
<path d="M124.609 47.625H97.4219V49.6094H124.609V47.625Z" fill="#54504E"/>
<path d="M129.141 55.5625H101.953V57.5469H129.141V55.5625Z" fill="#804D39"/>
<path d="M135.938 61.5156H9.0625V71.4375H135.938V61.5156Z" fill="#797270" stroke="#453F3C" stroke-width="2"/>
<path d="M90.625 71.4375H22.6562V83.3438H90.625V71.4375Z" fill="#797270" stroke="#453F3C" stroke-width="2"/>
<path d="M22.6562 71.4375H13.5938V119.062H22.6562V71.4375Z" fill="#797270" stroke="#453F3C" stroke-width="2"/>
<path d="M131.406 71.4375H90.625V119.062H131.406V71.4375Z" fill="#797270" stroke="#453F3C" stroke-width="2"/>
<path d="M90.625 95.25H131.406" stroke="#453F3C" stroke-width="2"/>
<path d="M49.8438 77.3906H63.4375" stroke="#453F3C" stroke-width="2"/>
<path d="M104.219 83.3438H117.812" stroke="#453F3C" stroke-width="2"/>
<path d="M104.219 107.156H117.812" stroke="#453F3C" stroke-width="2"/>
<path d="M88.3594 73.4219H24.9219V75.4062H88.3594V73.4219Z" fill="#54504E"/>
<path d="M133.672 63.5H11.3281V65.4844H133.672V63.5Z" fill="#9E9492"/>
<path d="M20.3906 73.4219H15.8594V75.4062H20.3906V73.4219Z" fill="#54504E"/>
<path d="M129.141 73.4219H92.8906V75.4062H129.141V73.4219Z" fill="#54504E"/>
<path d="M129.141 97.2344H92.8906V99.2188H129.141V97.2344Z" fill="#54504E"/>
<path d="M0 119.062H145" stroke="#453F3C" stroke-width="2"/>
</g>
<defs>
<clipPath id="clip0_8_175">
<rect width="145" height="127" fill="white"/>
</clipPath>
</defs>
</svg>
