<svg width="39" height="35" viewBox="0 0 39 35" fill="none" xmlns="http://www.w3.org/2000/svg">
<rect width="39" height="35" rx="2" fill="black"/>
<path d="M19.5028 11.9444C15.9557 11.9444 13.0945 14.6547 13.0945 18.0147C13.0945 21.3748 15.9557 24.0851 19.5028 24.0851C23.0499 24.0851 25.911 21.3748 25.911 18.0147C25.911 14.6547 23.0499 11.9444 19.5028 11.9444ZM19.5028 21.9613C17.2105 21.9613 15.3366 20.1914 15.3366 18.0147C15.3366 15.8381 17.205 14.0682 19.5028 14.0682C21.8006 14.0682 23.669 15.8381 23.669 18.0147C23.669 20.1914 21.795 21.9613 19.5028 21.9613ZM27.6679 11.6961C27.6679 12.4833 26.9986 13.112 26.1732 13.112C25.3422 13.112 24.6785 12.478 24.6785 11.6961C24.6785 10.9142 25.3477 10.2802 26.1732 10.2802C26.9986 10.2802 27.6679 10.9142 27.6679 11.6961ZM31.9122 13.1331C31.8173 11.2365 31.36 9.55641 29.8932 8.17223C28.432 6.78804 26.6584 6.35482 24.6562 6.25972C22.5926 6.14878 16.4074 6.14878 14.3438 6.25972C12.3472 6.34954 10.5736 6.78276 9.1068 8.16694C7.63999 9.55113 7.18823 11.2312 7.08784 13.1278C6.97072 15.0826 6.97072 20.9416 7.08784 22.8964C7.18265 24.793 7.63999 26.4731 9.1068 27.8573C10.5736 29.2415 12.3416 29.6747 14.3438 29.7698C16.4074 29.8807 22.5926 29.8807 24.6562 29.7698C26.6584 29.68 28.432 29.2467 29.8932 27.8573C31.3544 26.4731 31.8118 24.793 31.9122 22.8964C32.0293 20.9416 32.0293 15.0879 31.9122 13.1331ZM29.2462 24.9938C28.8112 26.0293 27.969 26.8271 26.8703 27.2444C25.225 27.8626 21.321 27.7199 19.5028 27.7199C17.6846 27.7199 13.775 27.8573 12.1352 27.2444C11.0421 26.8323 10.1999 26.0346 9.75934 24.9938C9.1068 23.4353 9.25739 19.7371 9.25739 18.0147C9.25739 16.2924 9.11238 12.5889 9.75934 11.0357C10.1944 10.0002 11.0365 9.20244 12.1352 8.78507C13.7805 8.16694 17.6846 8.30959 19.5028 8.30959C21.321 8.30959 25.2306 8.17223 26.8703 8.78507C27.9635 9.19716 28.8056 9.99492 29.2462 11.0357C29.8988 12.5942 29.7482 16.2924 29.7482 18.0147C29.7482 19.7371 29.8988 23.4406 29.2462 24.9938Z" fill="white"/>
</svg>
