<svg width="36" height="39" viewBox="0 0 36 39" fill="none" xmlns="http://www.w3.org/2000/svg">
<path d="M17.9919 39C17.4521 39 16.9042 38.8607 16.4288 38.5976L11.4575 35.7729C10.7162 35.3705 11.0788 35.2312 11.3205 35.1538C12.3115 34.821 12.513 34.7514 13.5685 34.171C13.6813 34.109 13.8263 34.1323 13.9391 34.2019L17.7583 36.3765C17.8953 36.4539 18.0886 36.4539 18.2175 36.3765L33.0994 28.1269C33.2363 28.0495 33.325 27.8947 33.325 27.74V11.2407C33.325 11.0782 33.2363 10.9311 33.0913 10.846L18.2175 2.60413C18.0806 2.52674 17.8953 2.52674 17.7583 2.60413L2.89257 10.8538C2.74754 10.9311 2.65891 11.0859 2.65891 11.2484V27.74C2.65891 27.8947 2.74754 28.0495 2.89257 28.1192L6.96956 30.3789C9.18532 31.4391 10.5389 30.1932 10.5389 28.9317V12.6492C10.5389 12.417 10.7323 12.239 10.974 12.239H12.8594C13.0931 12.239 13.2945 12.417 13.2945 12.6492V28.9395C13.2945 31.7719 11.6831 33.3971 8.8872 33.3971C8.02507 33.3971 7.34825 33.3971 5.46285 32.4994L1.56312 30.3402C0.59624 29.8062 0 28.8079 0 27.7322V11.2407C0 10.1727 0.59624 9.16668 1.56312 8.6327L16.4288 0.383074C17.3715 -0.127691 18.6204 -0.127691 19.5551 0.383074L34.4369 8.64044C35.4038 9.17442 36 10.1727 36 11.2484V27.74C36 28.8079 35.4038 29.8062 34.4369 30.348L19.5551 38.5976C19.0797 38.8607 18.5398 39 17.9919 39ZM30.0054 22.7406C30.0054 19.6528 27.8299 18.8325 23.2614 18.2521C18.6365 17.664 18.1692 17.3621 18.1692 16.3251C18.1692 15.4661 18.564 14.3208 21.9884 14.3208C25.0421 14.3208 26.1701 14.9554 26.6374 16.9365C26.6777 17.1222 26.855 17.2615 27.0564 17.2615H28.9902C29.111 17.2615 29.2238 17.2151 29.3044 17.13C29.385 17.0448 29.4252 16.9288 29.4172 16.8127C29.1191 13.3998 26.7583 11.8134 21.9884 11.8134C17.7422 11.8134 15.2122 13.5314 15.2122 16.418C15.2122 19.5445 17.7341 20.4113 21.803 20.7982C26.6777 21.2548 27.0564 21.9435 27.0564 22.8645C27.0564 24.4587 25.7189 25.1397 22.5846 25.1397C18.6446 25.1397 17.7825 24.1878 17.4924 22.3073C17.4602 22.1061 17.2829 21.959 17.0654 21.959H15.1397C14.8979 21.959 14.7126 22.1448 14.7126 22.3692C14.7126 24.776 16.0743 27.6471 22.5927 27.6471C27.2981 27.6393 30.0054 25.8517 30.0054 22.7406Z" fill="#FAFF00"/>
</svg>
