<svg width="37" height="35" viewBox="0 0 37 35" fill="none" xmlns="http://www.w3.org/2000/svg">
<path d="M34.3571 0H2.6346C1.18103 0 0 1.13281 0 2.52344V32.4766C0 33.8672 1.18103 35 2.6346 35H34.3571C35.8107 35 37 33.8672 37 32.4766V2.52344C37 1.13281 35.8107 0 34.3571 0ZM11.1826 30H5.69866V13.2969H11.1908V30H11.1826ZM8.44062 11.0156C6.68147 11.0156 5.26094 9.66406 5.26094 8.00781C5.26094 6.35156 6.68147 5 8.44062 5C10.1915 5 11.6203 6.35156 11.6203 8.00781C11.6203 9.67188 10.1998 11.0156 8.44062 11.0156ZM31.7391 30H26.2551V21.875C26.2551 19.9375 26.2138 17.4453 23.4058 17.4453C20.5482 17.4453 20.1105 19.5547 20.1105 21.7344V30H14.6266V13.2969H19.8875V15.5781H19.9618C20.6969 14.2656 22.4891 12.8828 25.1567 12.8828C30.7067 12.8828 31.7391 16.3438 31.7391 20.8438V30Z" fill="black"/>
</svg>
