<svg width="60" height="32" viewBox="0 0 60 32" fill="none" xmlns="http://www.w3.org/2000/svg">
<path d="M30 1.575C46.0687 1.575 58.425 8.34375 58.425 15.7781C58.425 23.2125 46.0594 29.9812 30 29.9812C13.9313 29.9812 1.575 23.2125 1.575 15.7781C1.575 8.34375 13.9406 1.575 30 1.575ZM30 0C13.4344 0 0 7.05937 0 15.7781C0 24.4969 13.4344 31.5562 30 31.5562C46.5656 31.5562 60 24.4969 60 15.7781C60 7.05937 46.5656 0 30 0ZM20.4562 14.5125C19.7156 18.3094 17.1 17.9156 13.8844 17.9156L15.1688 11.2969C18.7313 11.2969 21.15 10.9125 20.4562 14.5125ZM9.13125 24.6187H12.5719L13.3875 20.4187C17.2406 20.4187 19.6312 20.7 21.8438 18.6281C24.2906 16.3781 24.9281 12.375 23.1844 10.3687C22.275 9.31875 20.8125 8.80313 18.825 8.80313H12.1969L9.13125 24.6187ZM26.5406 4.59375H29.9625L29.1469 8.79375C32.1 8.79375 34.8375 8.57812 36.1594 9.79687C37.5469 11.0719 36.8812 12.7031 35.3812 20.4H31.9125C33.3562 12.9562 33.6281 12.3375 33.1031 11.775C32.5969 11.2312 31.4438 11.3437 28.6594 11.3437L26.8969 20.4H23.475L26.5406 4.59375ZM47.3438 14.5125C46.5938 18.3656 43.9031 17.9156 40.7719 17.9156L42.0563 11.2969C45.6375 11.2969 48.0375 10.9125 47.3438 14.5125ZM36.0188 24.6187H39.4688L40.2844 20.4187C44.3344 20.4187 46.575 20.6531 48.7406 18.6281C51.1875 16.3781 51.825 12.375 50.0813 10.3687C49.1719 9.31875 47.7094 8.80313 45.7219 8.80313H39.0938L36.0188 24.6187Z" fill="#787CB5"/>
</svg>
