<svg width="36" height="34" viewBox="0 0 36 34" fill="none" xmlns="http://www.w3.org/2000/svg">
<path d="M14.625 0C13.7299 0 12.8714 0.413323 12.2385 1.14904C11.6056 1.88476 11.25 2.88261 11.25 3.92308V5.23077H3.375C2.47989 5.23077 1.62145 5.64409 0.988515 6.37981C0.355579 7.11553 0 8.11338 0 9.15385L0 30.0769C0 31.1174 0.355579 32.1152 0.988515 32.851C1.62145 33.5867 2.47989 34 3.375 34H32.625C33.5201 34 34.3786 33.5867 35.0115 32.851C35.6444 32.1152 36 31.1174 36 30.0769V9.15385C36 8.11338 35.6444 7.11553 35.0115 6.37981C34.3786 5.64409 33.5201 5.23077 32.625 5.23077H24.75V3.92308C24.75 2.88261 24.3944 1.88476 23.7615 1.14904C23.1286 0.413323 22.2701 0 21.375 0H14.625ZM14.625 2.61538H21.375C21.6734 2.61538 21.9595 2.75316 22.1705 2.9984C22.3815 3.24364 22.5 3.57626 22.5 3.92308V5.23077H13.5V3.92308C13.5 3.57626 13.6185 3.24364 13.8295 2.9984C14.0405 2.75316 14.3266 2.61538 14.625 2.61538ZM18.8685 20.6982L33.75 16.0872V30.0769C33.75 30.4237 33.6315 30.7564 33.4205 31.0016C33.2095 31.2468 32.9234 31.3846 32.625 31.3846H3.375C3.07663 31.3846 2.79048 31.2468 2.5795 31.0016C2.36853 30.7564 2.25 30.4237 2.25 30.0769V16.0846L17.1315 20.6982C17.7006 20.8743 18.2994 20.8743 18.8685 20.6982ZM3.375 7.84615H32.625C32.9234 7.84615 33.2095 7.98393 33.4205 8.22917C33.6315 8.47441 33.75 8.80702 33.75 9.15385V13.3803L18.2902 18.1717C18.1001 18.2307 17.8999 18.2307 17.7097 18.1717L2.25 13.3803V9.15385C2.25 8.80702 2.36853 8.47441 2.5795 8.22917C2.79048 7.98393 3.07663 7.84615 3.375 7.84615Z" fill="black"/>
</svg>
