<svg width="37" height="39" viewBox="0 0 37 39" fill="none" xmlns="http://www.w3.org/2000/svg">
<path d="M24.1408 24.3689C24.1408 28.0608 20.8604 27.9755 20.5135 27.9755H13.8329V20.8641H20.5135C24.0285 20.8641 24.1408 23.6411 24.1408 24.3689ZM19.999 18.0027C20.0543 18.0027 23.1737 18.0897 23.1737 14.8418C23.1737 13.4907 22.8838 11.7192 19.999 11.7192H13.8329V18.0027H19.999ZM37 6.50029V32.4997C36.9952 34.2221 36.3439 35.8726 35.1884 37.0905C34.033 38.3085 32.4672 38.9949 30.8331 39H6.16694C4.53284 38.9949 2.96704 38.3085 1.81155 37.0905C0.656062 35.8726 0.00479339 34.2221 0 32.4997L0 6.50029C0.00479339 4.77786 0.656062 3.12742 1.81155 1.90947C2.96704 0.691525 4.53284 0.00505249 6.16694 0H30.8331C32.4672 0.00505249 34.033 0.691525 35.1884 1.90947C36.3439 3.12742 36.9952 4.77786 37 6.50029ZM27.9193 24.8851C27.9193 23.0074 27.3701 19.8108 23.8683 19.0221V18.9585C25.7604 18.1071 26.9522 16.4993 26.9522 14.1149C26.9522 13.5055 27.1174 8.47554 20.5433 8.47554H10.0544V31.2252C20.6448 31.2252 21.6062 31.3715 23.566 30.7282C24.7396 30.3434 27.9193 29.1629 27.9193 24.8851Z" fill="#A800C4"/>
</svg>
