<svg width="39" height="30" viewBox="0 0 39 30" fill="none" xmlns="http://www.w3.org/2000/svg">
<path d="M0 5C0 3.67392 0.513615 2.40215 1.42785 1.46447C2.34209 0.526784 3.58207 0 4.875 0H34.125C35.4179 0 36.6579 0.526784 37.5721 1.46447C38.4864 2.40215 39 3.67392 39 5V25C39 26.3261 38.4864 27.5979 37.5721 28.5355C36.6579 29.4732 35.4179 30 34.125 30H4.875C3.58207 30 2.34209 29.4732 1.42785 28.5355C0.513615 27.5979 0 26.3261 0 25V5ZM4.875 2.5C4.22853 2.5 3.60855 2.76339 3.15143 3.23223C2.69431 3.70107 2.4375 4.33696 2.4375 5V5.5425L19.5 16.0425L36.5625 5.5425V5C36.5625 4.33696 36.3057 3.70107 35.8486 3.23223C35.3915 2.76339 34.7715 2.5 34.125 2.5H4.875ZM36.5625 8.4575L25.0867 15.52L36.5625 22.7625V8.4575ZM36.4796 25.6475L22.7321 16.97L19.5 18.9575L16.2679 16.97L2.52038 25.645C2.65889 26.177 2.96477 26.6472 3.39054 26.9826C3.8163 27.318 4.33813 27.4999 4.875 27.5H34.125C34.6616 27.5001 35.1831 27.3186 35.6089 26.9836C36.0346 26.6487 36.3407 26.179 36.4796 25.6475ZM2.4375 22.7625L13.9133 15.52L2.4375 8.4575V22.7625Z" fill="black"/>
</svg>
