<svg width="37" height="35" viewBox="0 0 37 35" fill="none" xmlns="http://www.w3.org/2000/svg">
<path d="M33.0357 0H3.96429C2.91289 0 1.90456 0.395088 1.16111 1.09835C0.417665 1.80161 0 2.75544 0 3.75L0 31.25C0 32.2446 0.417665 33.1984 1.16111 33.9016C1.90456 34.6049 2.91289 35 3.96429 35H15.2997V23.1008H10.0965V17.5H15.2997V13.2312C15.2997 8.37578 18.3555 5.69375 23.0358 5.69375C25.2773 5.69375 27.6212 6.07188 27.6212 6.07188V10.8375H25.0386C22.494 10.8375 21.7003 12.3312 21.7003 13.8633V17.5H27.3808L26.4723 23.1008H21.7003V35H33.0357C34.0871 35 35.0954 34.6049 35.8389 33.9016C36.5823 33.1984 37 32.2446 37 31.25V3.75C37 2.75544 36.5823 1.80161 35.8389 1.09835C35.0954 0.395088 34.0871 0 33.0357 0Z" fill="black"/>
</svg>
