<svg width="35" height="37" viewBox="0 0 35 37" fill="none" xmlns="http://www.w3.org/2000/svg">
<path d="M34.9831 8.15208C34.9776 8.13572 34.971 8.11973 34.9634 8.10422C34.9533 8.07395 34.9408 8.04453 34.9261 8.01625C34.9147 7.99867 34.902 7.98197 34.8881 7.96628C34.8726 7.94318 34.8557 7.92108 34.8374 7.90012C34.8212 7.88464 34.8008 7.87197 34.7832 7.8579C34.7631 7.84061 34.742 7.82463 34.7199 7.81004L27.9452 3.90966C27.8596 3.86024 27.7625 3.83423 27.6637 3.83423C27.5649 3.83423 27.4678 3.86024 27.3822 3.90966L20.6061 7.81215C20.5844 7.82689 20.5637 7.84311 20.5442 7.86071C20.525 7.8736 20.5067 7.8877 20.4893 7.90294C20.4709 7.92352 20.454 7.94539 20.4386 7.96839C20.4267 7.98528 20.4112 8.00006 20.4006 8.01836C20.3864 8.0468 20.3742 8.07619 20.364 8.10633C20.3584 8.12252 20.3493 8.1373 20.3443 8.15419C20.3314 8.20192 20.3248 8.25113 20.3246 8.30058V15.7072L14.6789 18.958V4.46494C14.679 4.41525 14.6724 4.36577 14.6592 4.31785C14.6549 4.30096 14.6451 4.28618 14.6395 4.27C14.6296 4.23997 14.6174 4.21078 14.6029 4.18273C14.593 4.16443 14.5768 4.14965 14.5649 4.13205C14.5494 4.10895 14.5324 4.08686 14.5142 4.0659C14.4966 4.05088 14.4783 4.03678 14.4593 4.02367C14.4396 4.00656 14.4189 3.99058 14.3973 3.97581L7.6206 0.0754315C7.535 0.0260155 7.43791 0 7.33908 0C7.24025 0 7.14316 0.0260155 7.05757 0.0754315L0.28222 3.97581C0.260223 3.9902 0.239503 4.00644 0.220287 4.02437C0.200878 4.03726 0.182307 4.05136 0.164688 4.0666C0.146485 4.08719 0.129786 4.10907 0.114719 4.13205C0.102051 4.14965 0.0865677 4.16443 0.076011 4.18273C0.061589 4.21074 0.0495812 4.23994 0.0401179 4.27C0.0324312 4.28532 0.0256171 4.30106 0.0197081 4.31715C0.00676052 4.36535 0.000136298 4.41503 2.08711e-06 4.46494V27.6688C-0.000267688 27.7679 0.0256199 27.8653 0.0750494 27.9511C0.124479 28.037 0.1957 28.1083 0.281516 28.1579L13.8294 35.9587C13.8595 35.9738 13.8908 35.9866 13.923 35.9967C13.9378 36.0023 13.9519 36.0107 13.9673 36.015C14.0619 36.0403 14.1614 36.0403 14.2559 36.015C14.27 36.0114 14.2819 36.0037 14.2946 35.9995C14.3286 35.9888 14.3615 35.9751 14.3931 35.9587L27.9452 28.1579C28.031 28.1083 28.1023 28.037 28.1517 27.9511C28.2011 27.8653 28.227 27.7679 28.2267 27.6688V20.2607L34.7185 16.5229C34.8048 16.4731 34.8764 16.4012 34.9258 16.3146C34.9753 16.2281 35.0009 16.1299 35 16.0303V8.29917C35.0004 8.24963 34.9947 8.20024 34.9831 8.15208ZM7.33838 1.21627L12.982 4.46424L7.33767 7.71432L1.69472 4.46494L7.33838 1.21627ZM13.5493 5.43898V19.6076L10.2746 21.493L7.90352 22.8584V8.69188L11.1782 6.80644L13.5493 5.43898ZM13.5493 34.4899L1.12887 27.3422V5.4418L3.49993 6.80574L6.77394 8.69188V23.8359C6.77537 23.8572 6.77819 23.8784 6.78239 23.8993C6.78407 23.9272 6.78784 23.955 6.79365 23.9823C6.8008 24.0041 6.80975 24.0253 6.82039 24.0457C6.82823 24.0699 6.83812 24.0935 6.84995 24.1161C6.86296 24.1351 6.87706 24.1535 6.89218 24.1709C6.90626 24.1917 6.92178 24.2115 6.93863 24.2301C6.95481 24.2455 6.97522 24.2568 6.99282 24.2709C7.01203 24.2876 7.03225 24.3031 7.05334 24.3173L13.5415 27.9897L13.5493 34.4899ZM14.1123 27.0178L8.47781 23.8282L14.3959 20.4212L20.8891 16.6834L26.5285 19.9299L22.3902 22.2918L14.1123 27.0178ZM27.0986 27.3394L14.6775 34.4934V27.9967L23.8773 22.7465L27.0986 20.9061V27.3394ZM27.0986 18.9552L24.7275 17.5948L21.4528 15.7093V9.27532L23.8239 10.6407L27.0986 12.5275V18.9552ZM27.6616 11.5457L22.0172 8.29635L27.6616 5.04768L33.3046 8.29565L27.6616 11.5457ZM28.2246 18.9552V12.5275L31.5064 10.6407L33.8767 9.27532V15.7072L28.2246 18.9552Z" fill="#F05340"/>
</svg>
