<svg width="206" height="61" viewBox="0 0 206 61" fill="none" xmlns="http://www.w3.org/2000/svg">
<g clip-path="url(#clip0_3_37)">
<rect x="8" y="8" width="98" height="45" fill="black"/>
<path d="M22.54 30.6C22.54 27.5787 23.2147 24.88 24.564 22.504C25.9427 20.0987 27.8053 18.236 30.152 16.916C32.528 15.5667 35.1827 14.892 38.116 14.892C41.548 14.892 44.5547 15.772 47.136 17.532C49.7173 19.292 51.5213 21.7267 52.548 24.836H45.464C44.76 23.3693 43.7627 22.2693 42.472 21.536C41.2107 20.8027 39.744 20.436 38.072 20.436C36.2827 20.436 34.684 20.8613 33.276 21.712C31.8973 22.5333 30.812 23.7067 30.02 25.232C29.2573 26.7573 28.876 28.5467 28.876 30.6C28.876 32.624 29.2573 34.4133 30.02 35.968C30.812 37.4933 31.8973 38.6813 33.276 39.532C34.684 40.3533 36.2827 40.764 38.072 40.764C39.744 40.764 41.2107 40.3973 42.472 39.664C43.7627 38.9013 44.76 37.7867 45.464 36.32H52.548C51.5213 39.4587 49.7173 41.908 47.136 43.668C44.584 45.3987 41.5773 46.264 38.116 46.264C35.1827 46.264 32.528 45.604 30.152 44.284C27.8053 42.9347 25.9427 41.072 24.564 38.696C23.2147 36.32 22.54 33.6213 22.54 30.6ZM85.3974 15.288L74.1334 46H66.6534L55.3894 15.288H61.9894L70.4374 39.708L78.8414 15.288H85.3974Z" fill="white"/>
<path d="M138.868 40.148H126.636L124.612 46H118.144L129.188 15.244H136.36L147.404 46H140.892L138.868 40.148ZM137.196 35.22L132.752 22.372L128.308 35.22H137.196ZM185.016 15.288V46H178.856V26.024L170.628 46H165.964L157.692 26.024V46H151.532V15.288H158.528L168.296 38.124L178.064 15.288H185.016Z" fill="black"/>
</g>
<rect x="1" y="1" width="204" height="59" stroke="black" stroke-width="2"/>
<defs>
<clipPath id="clip0_3_37">
<rect width="206" height="61" fill="white"/>
</clipPath>
</defs>
</svg>
