<svg width="40" height="36" viewBox="0 0 40 36" fill="none" xmlns="http://www.w3.org/2000/svg">
<path d="M32.6719 11.3428C32.25 11.2021 31.8281 11.0693 31.4062 10.9443C31.4766 10.6553 31.5391 10.3662 31.6016 10.0771C32.5625 5.4209 31.9297 1.67871 29.7969 0.444335C27.7422 -0.735352 24.3906 0.49121 21 3.44433C20.6641 3.7334 20.3359 4.03808 20.0234 4.34277C19.8125 4.13965 19.5937 3.93652 19.375 3.74121C15.8203 0.58496 12.2578 -0.743164 10.125 0.499023C8.07813 1.68652 7.46875 5.20996 8.32812 9.61621C8.41406 10.0537 8.50781 10.4834 8.61719 10.9209C8.11719 11.0615 7.625 11.2178 7.16406 11.3818C2.99219 12.8271 0 15.1084 0 17.4678C0 19.9053 3.1875 22.3506 7.52344 23.835C7.875 23.9521 8.22656 24.0693 8.58594 24.1709C8.46875 24.6396 8.36719 25.1006 8.27344 25.5771C7.45313 29.9131 8.09375 33.3506 10.1406 34.5303C12.25 35.749 15.7969 34.499 19.25 31.4756C19.5234 31.2334 19.7969 30.9834 20.0703 30.7178C20.4141 31.0537 20.7734 31.374 21.1328 31.6865C24.4766 34.5615 27.7813 35.7256 29.8203 34.5459C31.9297 33.3271 32.6172 29.6318 31.7266 25.1318C31.6563 24.7881 31.5781 24.4365 31.4922 24.0771C31.7422 24.0068 31.9844 23.9287 32.2266 23.8506C36.7344 22.3584 40 19.9443 40 17.4678C40 15.1006 36.9219 12.8037 32.6719 11.3428ZM22.1016 4.70996C25.0078 2.17871 27.7188 1.18652 28.9531 1.89746C30.2734 2.65527 30.7812 5.71777 29.9531 9.74121C29.8984 10.0068 29.8438 10.2646 29.7734 10.5225C28.0391 10.1318 26.2812 9.85058 24.5156 9.69433C23.5 8.24121 22.3906 6.85058 21.1875 5.5459C21.4922 5.25683 21.7891 4.9834 22.1016 4.70996ZM13.0625 21.5225C13.4609 22.2021 13.8672 22.8818 14.2969 23.5459C13.0781 23.4131 11.8672 23.2178 10.6719 22.96C11.0156 21.835 11.4453 20.6709 11.9453 19.4834C12.3047 20.1709 12.6719 20.8506 13.0625 21.5225ZM10.6953 12.124C11.8203 11.874 13.0156 11.6709 14.2578 11.5146C13.8437 12.1631 13.4375 12.8271 13.0547 13.499C12.6719 14.1631 12.2969 14.8428 11.9453 15.5303C11.4531 14.3662 11.0391 13.2256 10.6953 12.124ZM12.8359 17.5068C13.3516 16.4287 13.9141 15.374 14.5078 14.335C15.1016 13.2959 15.7422 12.2881 16.4141 11.2959C17.5859 11.21 18.7812 11.1631 20 11.1631C21.2188 11.1631 22.4219 11.21 23.5859 11.2959C24.25 12.2803 24.8828 13.2881 25.4844 14.3193C26.0859 15.3506 26.6484 16.4053 27.1797 17.4756C26.6562 18.5537 26.0937 19.6162 25.4922 20.6631C24.8984 21.7021 24.2656 22.71 23.6016 23.71C22.4375 23.7959 21.2266 23.835 20 23.835C18.7734 23.835 17.5859 23.7959 16.4375 23.7256C15.7578 22.7334 15.1172 21.7178 14.5156 20.6787C13.9141 19.6396 13.3594 18.585 12.8359 17.5068ZM26.9453 21.5068C27.3437 20.8193 27.7188 20.124 28.0859 19.4209C28.5859 20.5537 29.0234 21.7021 29.4062 22.8818C28.1953 23.1553 26.9687 23.3662 25.7344 23.5068C26.1562 22.8506 26.5547 22.1787 26.9453 21.5068ZM28.0703 15.5303C27.7031 14.8428 27.3281 14.1553 26.9375 13.4834C26.5547 12.8193 26.1563 12.1631 25.7422 11.5146C27 11.6709 28.2031 11.8818 29.3281 12.1396C28.9687 13.2959 28.5469 14.4209 28.0703 15.5303ZM20.0156 6.74121C20.8359 7.63183 21.6094 8.56933 22.3281 9.53808C20.7812 9.46777 19.2266 9.46777 17.6797 9.53808C18.4453 8.53027 19.2344 7.59277 20.0156 6.74121ZM10.9531 1.95215C12.2656 1.18652 15.1797 2.28027 18.25 4.99902C18.4453 5.1709 18.6406 5.3584 18.8437 5.5459C17.6328 6.85058 16.5156 8.24121 15.4922 9.69433C13.7266 9.85058 11.9766 10.124 10.2422 10.5068C10.1406 10.1084 10.0547 9.70215 9.96875 9.2959C9.23437 5.51465 9.71875 2.66308 10.9531 1.95215ZM9.03906 22.5459C8.71094 22.4521 8.39063 22.3506 8.07031 22.2412C6.40625 21.7178 4.51562 20.8896 3.14844 19.8037C2.35937 19.2568 1.82812 18.4131 1.67969 17.4678C1.67969 16.0381 4.14844 14.21 7.71094 12.9678C8.15625 12.8115 8.60937 12.6709 9.0625 12.5381C9.59375 14.2334 10.2344 15.8975 10.9766 17.5068C10.2266 19.1396 9.57812 20.8271 9.03906 22.5459ZM18.1484 30.2021C16.8594 31.3818 15.3672 32.3193 13.7422 32.96C12.875 33.374 11.875 33.4131 10.9844 33.0615C9.74219 32.3428 9.22656 29.585 9.92969 25.874C10.0156 25.4365 10.1094 24.999 10.2188 24.5693C11.9688 24.9443 13.7344 25.2021 15.5234 25.335C16.5547 26.7959 17.6875 28.1943 18.8984 29.5068C18.6484 29.749 18.3984 29.9834 18.1484 30.2021ZM20.0625 28.3037C19.2656 27.4443 18.4687 26.4912 17.6953 25.4678C18.4453 25.499 19.2188 25.5146 20 25.5146C20.8047 25.5146 21.5937 25.499 22.375 25.46C21.6562 26.4521 20.8828 27.3975 20.0625 28.3037ZM30.2734 30.6475C30.2031 31.6006 29.7344 32.4912 28.9844 33.0928C27.7422 33.8115 25.0938 32.874 22.2344 30.4209C21.9063 30.1396 21.5781 29.835 21.2422 29.5225C22.4375 28.2021 23.5391 26.8037 24.5391 25.335C26.3281 25.1865 28.1094 24.9131 29.8672 24.5146C29.9453 24.835 30.0156 25.1553 30.0781 25.4678C30.4609 27.1553 30.5234 28.9131 30.2734 30.6475ZM31.6953 22.249C31.4766 22.3193 31.2578 22.3896 31.0313 22.4521C30.4844 20.749 29.8125 19.085 29.0391 17.4678C29.7891 15.874 30.4219 14.2334 30.9531 12.5537C31.3594 12.6709 31.75 12.7959 32.125 12.9209C35.7656 14.1709 38.3203 16.0303 38.3203 17.4521C38.3203 18.9834 35.5938 20.96 31.6953 22.249ZM20 21.0771C21.9766 21.0771 23.5781 19.4756 23.5781 17.499C23.5781 15.5225 21.9766 13.9209 20 13.9209C18.0234 13.9209 16.4219 15.5225 16.4219 17.499C16.4219 19.4756 18.0234 21.0771 20 21.0771Z" fill="#00C2FF"/>
</svg>
